<svg width="47" height="41" viewBox="0 0 47 41" fill="none" xmlns="http://www.w3.org/2000/svg">
<path opacity="0.5" d="M13.728 21.608C15.648 22.28 17.136 23.384 18.192 24.92C19.248 26.456 19.776 28.328 19.776 30.536C19.776 33.416 18.864 35.768 17.04 37.592C15.216 39.416 12.96 40.328 10.272 40.328C7.488 40.328 5.184 39.416 3.36 37.592C1.536 35.672 0.624001 33.32 0.624001 30.536C0.624001 29.192 0.768 27.848 1.056 26.504C1.44 25.064 2.16 23 3.216 20.312L9.984 0.151994H19.056L13.728 21.608ZM40.944 21.608C42.864 22.28 44.352 23.384 45.408 24.92C46.464 26.456 46.992 28.328 46.992 30.536C46.992 33.416 46.08 35.768 44.256 37.592C42.432 39.416 40.176 40.328 37.488 40.328C34.704 40.328 32.4 39.416 30.576 37.592C28.752 35.672 27.84 33.32 27.84 30.536C27.84 29.192 27.984 27.848 28.272 26.504C28.656 25.064 29.376 23 30.432 20.312L37.2 0.151994H46.272L40.944 21.608Z" fill="#638CF9"/>
</svg>
