<svg width="86" height="86" viewBox="0 0 56 56" fill="none" xmlns="http://www.w3.org/2000/svg">
<path d="M49 23.3333C49 39.6666 28 53.6666 28 53.6666C28 53.6666 7 39.6666 7 23.3333C7 17.7638 9.21249 12.4223 13.1508 8.48407C17.089 4.54581 22.4305 2.33331 28 2.33331C33.5695 2.33331 38.911 4.54581 42.8492 8.48407C46.7875 12.4223 49 17.7638 49 23.3333Z" stroke="white" stroke-width="2" stroke-linecap="round" stroke-linejoin="round"/>
<path d="M28 30.3333C31.866 30.3333 35 27.1993 35 23.3333C35 19.4673 31.866 16.3333 28 16.3333C24.134 16.3333 21 19.4673 21 23.3333C21 27.1993 24.134 30.3333 28 30.3333Z" stroke="white" stroke-width="2" stroke-linecap="round" stroke-linejoin="round"/>
</svg>
